<svg width="64" height="64" viewBox="0 0 64 64" fill="none" xmlns="http://www.w3.org/2000/svg">
<path d="M42.9357 26.6718C44.4257 16.6718 37.0957 7.1519 26.9357 7.0019C24.7545 6.96875 22.5885 7.36975 20.5637 8.18159C18.539 8.99342 16.6959 10.2001 15.1418 11.7309C13.5877 13.2617 12.3536 15.0863 11.5113 17.0986C10.6691 19.1109 10.2354 21.2707 10.2357 23.4521C10.2402 24.1712 10.2903 24.8892 10.3857 25.602V25.602L7.07568 34.582C7.00698 34.7712 6.98459 34.9742 7.0104 35.1738C7.03622 35.3734 7.10949 35.564 7.22406 35.7294C7.33862 35.8949 7.49117 36.0305 7.66891 36.1249C7.84666 36.2194 8.04444 36.2696 8.24569 36.2719H10.8457V41.0219C10.8457 42.6636 11.4978 44.238 12.6587 45.3989C13.8195 46.5597 15.394 47.2119 17.0357 47.2119H21.3357L27.0057 57.0322L42.7657 47.9321C41.3739 44.9213 40.6117 41.6576 40.5257 38.3417C40.4957 34.1617 42.2757 31.0818 42.9357 26.6718Z" fill="#00C5A1"/>
<path d="M33.5258 19.1211H19.4758C18.2387 19.1211 17.2358 20.1237 17.2358 21.3608V35.4106C17.2358 36.6478 18.2387 37.6509 19.4758 37.6509H33.5258C34.763 37.6509 35.7658 36.6478 35.7658 35.4106V21.3608C35.7658 20.1237 34.763 19.1211 33.5258 19.1211Z" fill="#BDEA09"/>
<path d="M30.0057 23.752H22.9857C22.3672 23.752 21.8657 24.2535 21.8657 24.8721V31.8921C21.8657 32.5106 22.3672 33.0117 22.9857 33.0117H30.0057C30.6243 33.0117 31.1257 32.5106 31.1257 31.8921V24.8721C31.1257 24.2535 30.6243 23.752 30.0057 23.752Z" stroke="#0B0B0B" stroke-miterlimit="10"/>
<path d="M56.2356 28.3926H35.7656" stroke="#0B0B0B" stroke-linecap="round" stroke-linejoin="round"/>
<path d="M35.7656 23.5229H46.0756C46.2275 23.5243 46.3781 23.4957 46.5188 23.4385C46.6594 23.3813 46.7874 23.2969 46.8953 23.1899C47.0031 23.083 47.0887 22.9556 47.1471 22.8154C47.2055 22.6752 47.2356 22.5249 47.2356 22.373V17.4531" stroke="#0B0B0B" stroke-linecap="round" stroke-linejoin="round"/>
<path d="M47.1758 18.2324C48.5565 18.2324 49.6758 17.1131 49.6758 15.7324C49.6758 14.3517 48.5565 13.2324 47.1758 13.2324C45.7951 13.2324 44.6758 14.3517 44.6758 15.7324C44.6758 17.1131 45.7951 18.2324 47.1758 18.2324Z" fill="#B17CEF"/>
<path d="M35.7656 33.2617H46.0756C46.3833 33.2617 46.6783 33.3835 46.8959 33.6011C47.1134 33.8186 47.2356 34.1137 47.2356 34.4214V39.3315" stroke="#0B0B0B" stroke-linecap="round" stroke-linejoin="round"/>
<path d="M47.1758 43.543C48.5565 43.543 49.6758 42.4237 49.6758 41.043C49.6758 39.6623 48.5565 38.543 47.1758 38.543C45.7951 38.543 44.6758 39.6623 44.6758 41.043C44.6758 42.4237 45.7951 43.543 47.1758 43.543Z" fill="#B17CEF"/>
<path d="M54.4658 30.8926C55.8465 30.8926 56.9658 29.7733 56.9658 28.3926C56.9658 27.0119 55.8465 25.8926 54.4658 25.8926C53.0851 25.8926 51.9658 27.0119 51.9658 28.3926C51.9658 29.7733 53.0851 30.8926 54.4658 30.8926Z" fill="#B17CEF"/>
<path d="M26.5059 19.1328V12.3628C26.5059 12.0551 26.6281 11.7605 26.8456 11.543C27.0632 11.3254 27.3582 11.2031 27.6659 11.2031H35.7659" stroke="#0B0B0B" stroke-linecap="round" stroke-linejoin="round"/>
<path d="M37.4756 13.6914C38.8563 13.6914 39.9756 12.5721 39.9756 11.1914C39.9756 9.81069 38.8563 8.69141 37.4756 8.69141C36.0949 8.69141 34.9756 9.81069 34.9756 11.1914C34.9756 12.5721 36.0949 13.6914 37.4756 13.6914Z" fill="#B17CEF"/>
</svg>
