<svg width="64" height="64" viewBox="0 0 64 64" fill="none" xmlns="http://www.w3.org/2000/svg">
<path d="M25.8101 19.9807C26.4094 19.0241 27.2152 18.2136 28.1683 17.6086C29.1214 17.0037 30.1977 16.6193 31.3184 16.4841C32.4392 16.3489 33.5759 16.4664 34.6455 16.8274C35.7151 17.1883 36.6904 17.7839 37.5001 18.5705C37.938 18.9906 38.321 19.4645 38.6401 19.9807" stroke="#0B0B0B" stroke-linecap="round" stroke-linejoin="round"/>
<path d="M19.3599 12.8801C19.5799 12.6101 19.8199 12.3598 20.0699 12.0998C23.2191 8.88693 27.5134 7.05364 32.012 7.00116C36.5106 6.94867 40.8466 8.68149 44.0699 11.82C44.3699 12.12 44.6599 12.4199 44.9399 12.7399" stroke="#0B0B0B" stroke-linecap="round" stroke-linejoin="round"/>
<path d="M22.4102 16.4301C22.7183 16.0413 23.0524 15.6737 23.4102 15.33C24.5451 14.1665 25.8982 13.2383 27.3921 12.5981C28.886 11.9578 30.4914 11.618 32.1166 11.5985C33.7419 11.579 35.355 11.88 36.8638 12.4843C38.3727 13.0885 39.7476 13.9841 40.9102 15.12C41.2641 15.478 41.5979 15.8556 41.9102 16.2504" stroke="#0B0B0B" stroke-linecap="round" stroke-linejoin="round"/>
<path d="M48.2302 39.1295L44.6202 31.1993C43.9596 29.8166 42.9157 28.6529 41.6127 27.8463C40.3097 27.0397 38.8025 26.6243 37.2703 26.6495H26.7402C25.208 26.6243 23.7007 27.0397 22.3978 27.8463C21.0948 28.6529 20.0509 29.8166 19.3903 31.1993L15.7803 39.1295C26.5387 40.7162 37.4717 40.7162 48.2302 39.1295Z" fill="#6491FC"/>
<path d="M48.2297 39.1289C37.4713 40.7156 26.5383 40.7156 15.7798 39.1289L15.3597 40.0391C14.7772 41.3206 14.4738 42.7109 14.4697 44.1187V51.9888H49.5397V44.1187C49.5371 42.7097 49.2302 41.3184 48.6398 40.0391L48.2297 39.1289Z" fill="#00C5A1"/>
<path d="M19.4697 51.9902V55.9902C19.4697 56.2555 19.3644 56.5097 19.1769 56.6973C18.9893 56.8848 18.7349 56.9902 18.4697 56.9902H15.4697C15.2045 56.9902 14.9502 56.8848 14.7626 56.6973C14.5751 56.5097 14.4697 56.2555 14.4697 55.9902V51.9902" fill="#B17CEF"/>
<path d="M49.54 51.9902V55.9902C49.54 56.2555 49.4347 56.5097 49.2472 56.6973C49.0597 56.8848 48.8053 56.9902 48.54 56.9902H45.54C45.2748 56.9902 45.0205 56.8848 44.8329 56.6973C44.6454 56.5097 44.54 56.2555 44.54 55.9902V51.9902" fill="#B17CEF"/>
<path d="M52 38.5C38.7771 40.9267 25.2229 40.9267 12 38.5" stroke="#0B0B0B" stroke-linecap="round" stroke-linejoin="round"/>
<path d="M27.4102 46.4805H36.5902" stroke="#0B0B0B" stroke-linecap="round" stroke-linejoin="round"/>
<path d="M18.1401 46.4805H20.7901" stroke="#0B0B0B" stroke-linecap="round" stroke-linejoin="round"/>
<path d="M43.21 46.4805H45.8599" stroke="#0B0B0B" stroke-linecap="round" stroke-linejoin="round"/>
</svg>
