<svg width="140" height="40" viewBox="0 0 140 40" fill="none" xmlns="http://www.w3.org/2000/svg">
<path d="M8.44118 19.2667C6.02441 19.2667 4.0046 18.4662 2.4051 16.8526C0.80559 15.239 0 13.1681 0 10.627C0 8.07319 0.793915 6.00221 2.39342 4.40132C3.98125 2.80044 6.00106 2 8.44118 2C10.2859 2 11.7686 2.4701 12.8894 3.3976C14.0103 4.3378 14.8509 5.48129 15.4113 6.85347L11.4067 8.87363C11.2082 8.21295 10.8346 7.64121 10.2859 7.1584C9.72546 6.6883 9.10667 6.4469 8.44118 6.4469C7.33204 6.4469 6.44472 6.85347 5.75588 7.65391C5.06705 8.45435 4.71679 9.44538 4.71679 10.627C4.71679 11.8086 5.06705 12.7996 5.75588 13.6C6.44472 14.4005 7.34371 14.8071 8.44118 14.8071C9.11835 14.8071 9.72546 14.5657 10.2859 14.0956C10.8346 13.6255 11.2082 13.0537 11.4067 12.3803L15.4113 14.3878C15.1661 15.0104 14.8626 15.5821 14.4889 16.103C14.1153 16.6239 13.66 17.1449 13.1113 17.6404C12.5625 18.1359 11.8854 18.5425 11.0798 18.8347C10.2625 19.1142 9.38688 19.2667 8.44118 19.2667Z" fill="#0B0B0B"></path>
<path fill-rule="evenodd" clip-rule="evenodd" d="M24.2176 19.2667C26.5192 19.2667 28.4391 18.4656 29.9773 16.8509C31.5155 15.2361 32.2902 13.1636 32.2902 10.6206C32.2902 8.09038 31.5155 6.01787 29.9773 4.41581C28.4391 2.80103 26.5192 2 24.2176 2C21.916 2 19.9961 2.80103 18.4579 4.41581C16.9197 6.01787 16.145 8.09038 16.145 10.6333C16.145 13.1636 16.9197 15.2361 18.4579 16.8509C19.9961 18.4656 21.916 19.2667 24.2176 19.2667ZM24.2176 14.8165C23.1734 14.8165 22.3202 14.4096 21.669 13.6086C21.0065 12.8076 20.6809 11.8158 20.6809 10.6333C20.6809 9.45085 21.0178 8.4591 21.669 7.65807C22.3202 6.85704 23.1734 6.45016 24.2176 6.45016C25.2618 6.45016 26.115 6.85704 26.7662 7.65807C27.4287 8.4591 27.7543 9.45085 27.7543 10.6333C27.7543 11.8158 27.4174 12.8076 26.7662 13.6086C26.115 14.4096 25.2618 14.8165 24.2176 14.8165Z" fill="#0B0B0B"></path>
<path d="M46.5699 17.2649C45.3374 18.5951 43.5169 19.2667 41.097 19.2667C38.6772 19.2667 36.8453 18.5951 35.6128 17.2649C34.3689 15.9347 33.7583 14.1784 33.7583 11.9829V2H38.3266V11.815C38.3266 12.6674 38.5641 13.3647 39.0503 13.9072C39.5365 14.4625 40.215 14.7337 41.1083 14.7337C41.979 14.7337 42.6575 14.4625 43.1437 13.9072C43.6299 13.3518 43.8674 12.6545 43.8674 11.815V2H48.4357V11.97C48.4131 14.1654 47.8025 15.9347 46.5699 17.2649Z" fill="#0B0B0B"></path>
<path fill-rule="evenodd" clip-rule="evenodd" d="M58.7585 19.2667H63.8469L61.1735 13.1648C61.8924 12.744 62.5102 12.1128 63.0381 11.2448C63.5661 10.3769 63.8244 9.27225 63.8244 7.9309C63.8244 6.23448 63.3526 4.82737 62.4203 3.69642C61.4768 2.56547 60.1738 2 58.5113 2H50.6372V19.2667H55.1078V13.8355H56.7253L58.7585 19.2667ZM58.882 8.91718C58.6012 9.15388 58.253 9.27224 57.8374 9.27224L55.1191 9.25909V6.53693H57.8374C58.253 6.53693 58.6012 6.65528 58.882 6.89199C59.1628 7.1287 59.2976 7.45746 59.2976 7.89143C59.2976 8.33855 59.1628 8.68047 58.882 8.91718Z" fill="#0B0B0B"></path>
<path d="M71.4209 19.2667C68.5951 19.2667 66.3075 18.3753 64.5806 16.6054L66.9018 12.849C68.225 14.2879 69.8061 15.0009 71.6452 15.0009C72.7329 15.0009 73.2824 14.6953 73.2824 14.0969C73.2824 13.8167 73.002 13.6002 72.4301 13.4474C71.8582 13.2946 71.1742 13.1418 70.378 12.9763C69.5706 12.8108 68.7745 12.5688 67.9671 12.2505C67.1597 11.9322 66.4757 11.3719 65.915 10.5697C65.3431 9.76745 65.0628 8.7615 65.0628 7.53909C65.0628 6.0238 65.601 4.71224 66.6887 3.62989C67.7652 2.54754 69.2679 2 71.1854 2C73.6748 2 75.7606 2.77675 77.4314 4.33024L75.0429 7.90836C73.7645 6.80054 72.318 6.253 70.7144 6.253C69.9631 6.253 69.5931 6.50767 69.5931 7.00428C69.5931 7.27168 69.8734 7.48815 70.4341 7.65369C70.9948 7.81922 71.6788 7.99749 72.475 8.17576C73.2824 8.35403 74.0785 8.6087 74.8971 8.92704C75.7045 9.24538 76.3885 9.79292 76.9492 10.5569C77.5099 11.3209 77.7902 12.2887 77.7902 13.4347C77.7902 15.2683 77.2296 16.7072 76.097 17.7259C74.9644 18.7573 73.4057 19.2667 71.4209 19.2667Z" fill="#0B0B0B"></path>
<path d="M90.9998 19.2667H79.9917V2H90.9998V6.56324H84.3795V8.27281H90.845V12.8361H84.3795V14.7297H90.9998V19.2667Z" fill="#0B0B0B"></path>
<path fill-rule="evenodd" clip-rule="evenodd" d="M8.56841 38.9868H13.9435L11.1139 32.5924C11.8753 32.1574 12.5344 31.4981 13.0913 30.5884C13.6481 29.6919 13.9208 28.5317 13.9208 27.1209C13.9208 25.3542 13.4322 23.8776 12.4435 22.691C11.4548 21.5044 10.0798 20.9111 8.3184 20.9111H0V39H4.71603V33.3044H6.42062L8.56841 38.9868ZM8.69341 28.1625C8.39795 28.413 8.02294 28.5317 7.59111 28.5317H4.71603V25.6838H7.59111C8.0343 25.6838 8.39795 25.8157 8.69341 26.053C8.98887 26.2903 9.1366 26.6463 9.1366 27.0946C9.1366 27.556 8.98887 27.9252 8.69341 28.1625Z" fill="#0B0B0B"></path>
<path d="M27.887 39H16.145V20.9111H27.887V25.6873H20.8305V27.4817H27.7176V32.2579H20.8305V34.237H27.887V39Z" fill="#0B0B0B"></path>
<path fill-rule="evenodd" clip-rule="evenodd" d="M29.355 39H34.0787H34.0901V33.3134H37.687C39.4512 33.3134 40.8285 32.7197 41.8188 31.5323C42.7977 30.3448 43.2985 28.8803 43.2985 27.1255C43.2985 25.3575 42.8091 23.8798 41.8188 22.6923C40.8285 21.5049 39.4512 20.9111 37.687 20.9111H29.355V39ZM38.0967 28.1678C37.8349 28.4185 37.4935 28.5372 37.0723 28.5372H34.0787V25.6873H37.0723C37.4935 25.6873 37.8349 25.8193 38.0967 26.0567C38.3585 26.2942 38.4951 26.6505 38.4951 27.1255C38.4951 27.574 38.3585 27.9303 38.0967 28.1678Z" fill="#0B0B0B"></path>
<path fill-rule="evenodd" clip-rule="evenodd" d="M53.2056 39C55.6025 39 57.6167 38.1581 59.2258 36.4742C60.835 34.7776 61.6451 32.609 61.6451 29.9556C61.6451 27.2894 60.835 25.1208 59.2258 23.4369C57.6167 21.7531 55.6137 20.9111 53.2056 20.9111C50.8088 20.9111 48.7946 21.7531 47.1854 23.4369C45.5763 25.1336 44.7661 27.3022 44.7661 29.9556C44.7661 32.6217 45.5763 34.7903 47.1854 36.4742C48.7946 38.1581 50.7976 39 53.2056 39ZM53.1944 34.3311C52.1029 34.3311 51.2139 33.9101 50.5275 33.0682C49.8411 32.239 49.5035 31.1929 49.5035 29.9428C49.5035 28.6926 49.8411 27.6593 50.5275 26.8174C51.2139 25.9755 52.1029 25.5545 53.1944 25.5545C54.2859 25.5545 55.1749 25.9755 55.8613 26.8174C56.5364 27.6593 56.8853 28.7054 56.8853 29.9428C56.8853 31.1929 56.5477 32.2262 55.8613 33.0682C55.1749 33.9101 54.2859 34.3311 53.1944 34.3311Z" fill="#0B0B0B"></path>
<path fill-rule="evenodd" clip-rule="evenodd" d="M71.6768 38.9868H77.0563L74.2472 32.5924C75.0092 32.1574 75.6688 31.4981 76.2261 30.5884C76.7834 29.6919 77.0563 28.5317 77.0563 27.1209C77.0563 25.3542 76.5559 23.8776 75.5665 22.691C74.577 21.5044 73.2008 20.9111 71.438 20.9111H63.1128V39H67.8327V33.3044H69.5387L71.6768 38.9868ZM71.8019 28.1625C71.5062 28.413 71.1309 28.5317 70.6987 28.5317H67.8213V25.6838H70.6987C71.1423 25.6838 71.5062 25.8157 71.8019 26.053C72.0976 26.2903 72.2455 26.6463 72.2455 27.0946C72.2455 27.556 72.0976 27.9252 71.8019 28.1625Z" fill="#0B0B0B"></path>
<path d="M86.7924 39H82.0213V25.6873H77.7905V20.9111H91.0002V25.6873H86.7924V39Z" fill="#0B0B0B"></path>
</svg>
