<svg width="64" height="64" viewBox="0 0 64 64" fill="none" xmlns="http://www.w3.org/2000/svg">
<path d="M16.52 36.1602C16.52 33.5313 14.3889 31.4004 11.76 31.4004C9.13112 31.4004 7 33.5313 7 36.1602C7 38.789 9.13112 40.9199 11.76 40.9199C14.3889 40.9199 16.52 38.789 16.52 36.1602Z" fill="#B17CEF"/>
<path d="M43.5097 25.0493C43.5097 22.4204 41.3786 20.2891 38.7498 20.2891C36.1209 20.2891 33.9897 22.4204 33.9897 25.0493V36.1592C33.9897 38.7881 36.1209 40.9189 38.7498 40.9189C41.3786 40.9189 43.5097 38.7881 43.5097 36.1592V25.0493Z" fill="#B17CEF"/>
<path d="M30.0098 17.7603C30.0098 15.1314 27.8786 13 25.2498 13C22.6209 13 20.4897 15.1314 20.4897 17.7603V36.1602C20.4897 38.789 22.6209 40.9199 25.2498 40.9199C27.8786 40.9199 30.0098 38.789 30.0098 36.1602V17.7603Z" fill="#B17CEF"/>
<path d="M57 10.7603C57 8.13138 54.8689 6 52.24 6C49.6111 6 47.48 8.13138 47.48 10.7603V36.1602C47.48 38.789 49.6111 40.9199 52.24 40.9199C54.8689 40.9199 57 38.789 57 36.1602V10.7603Z" fill="#B17CEF"/>
<path d="M35.4097 43.8398L40.6297 49.0698" stroke="#0B0B0B" stroke-linecap="round" stroke-linejoin="round"/>
<path d="M40.8604 45.8784C39.9114 44.9294 38.3746 44.9281 37.4276 45.8751C36.4806 46.8221 36.482 48.3589 37.4309 49.3079L43.4203 55.2972C44.3693 56.2462 45.9064 56.2479 46.8534 55.3009C47.8004 54.3539 47.7987 52.8167 46.8498 51.8678L40.8604 45.8784Z" fill="#6491FC"/>
<path d="M25.2797 48.0303C33.1829 48.0303 39.5897 41.6234 39.5897 33.7202C39.5897 25.817 33.1829 19.4102 25.2797 19.4102C17.3765 19.4102 10.9697 25.817 10.9697 33.7202C10.9697 41.6234 17.3765 48.0303 25.2797 48.0303Z" stroke="#0B0B0B" stroke-linecap="round" stroke-linejoin="round"/>
</svg>
