<svg width="140" height="40" viewBox="0 0 140 40" fill="none" xmlns="http://www.w3.org/2000/svg">
<path fill-rule="evenodd" clip-rule="evenodd" d="M62.9875 17.9632C64.3384 16.3475 65.9257 15.7753 67.7833 15.9773C70.6202 16.2465 72.444 17.7949 73.187 20.5213C73.7949 23.0121 73.8287 25.5029 72.9844 27.96C71.6672 31.7972 67.9184 32.605 65.0476 31.5952C64.4904 31.3933 63.9901 31.0209 63.4898 30.6486C63.3231 30.5244 63.1563 30.4003 62.9875 30.2825V31.6625H58.0903V8.60587L62.9875 8V8.60587V8.70685V17.4583V17.9632ZM65.6218 28.1283C67.0741 28.2629 68.2899 27.4551 68.4925 25.9404C68.6952 24.6277 68.6952 23.2477 68.4588 21.9013C68.2561 20.3866 67.1416 19.6798 65.6556 19.7135C64.6424 19.7471 63.8318 20.2183 63.3928 21.0262C62.8524 22.1033 62.9537 24.3584 63.0213 25.4356C63.1226 26.1424 63.4941 27.2532 64.6424 27.9263C64.9463 28.0273 65.2503 28.0946 65.6218 28.1283Z" fill="#0B0B0B"></path>
<path fill-rule="evenodd" clip-rule="evenodd" d="M80.0088 16.2466C81.7313 15.809 83.4537 15.7753 85.1424 16.2466C87.8443 16.9534 89.4992 18.7037 90.1409 21.3964C90.5461 23.1467 90.5461 24.8634 90.1409 26.58C89.3978 29.7103 86.9324 31.7635 83.6901 31.9318H83.5888C82.9134 31.9991 82.1366 31.9655 81.5286 31.8982C81.4324 31.8822 81.3437 31.8738 81.2591 31.8658C81.1656 31.8569 81.0769 31.8485 80.9883 31.8308H80.8532C80.7856 31.814 80.7265 31.8056 80.6674 31.7972C80.6083 31.7888 80.5492 31.7804 80.4817 31.7635H80.4479L80.3128 31.7299C77.1381 30.9894 75.1117 28.6669 74.9428 25.4019C74.8415 23.9546 74.9091 22.4735 75.213 21.0935C75.7534 18.5354 77.4758 16.9197 80.0088 16.2466ZM85.3113 26.0078C85.3451 25.9068 85.3788 25.8058 85.3788 25.7049C85.3788 25.6492 85.3868 25.5266 85.3979 25.3554C85.4474 24.5942 85.5594 22.872 85.3113 21.8004C84.9736 20.5213 84.0279 19.7808 82.677 19.7472C81.0221 19.7135 79.9413 20.6896 79.8062 22.4062C79.7387 23.4833 79.7387 24.5941 79.84 25.7049C80.0089 27.2195 81.0221 28.0947 82.5419 28.162C83.9266 28.2293 84.9736 27.4551 85.3113 26.0078Z" fill="#0B0B0B"></path>
<path d="M11.5167 16.1792H8.00428V13.8567C8.27447 11.6689 11.8882 12.0728 11.8882 12.0728V11.9381V11.9045V8.30292C11.7531 8.26926 4.66072 6.58629 3.24224 11.9718V12.0055C3.00583 12.6786 3.0396 15.7753 3.0396 16.1456H0V20.2857H3.20847V31.5279H7.90296V20.2857H11.4829L11.8882 16.1456H11.5167V16.1792Z" fill="#0B0B0B"></path>
<path fill-rule="evenodd" clip-rule="evenodd" d="M22.6337 18.0614C22.6522 18.0837 22.6719 18.1076 22.6958 18.1314L22.662 16.1792H27.2552V31.6288H22.662V29.6429C22.5945 29.8112 22.5269 29.8786 22.5269 29.8786C21.7839 30.821 20.9734 31.4942 19.8588 31.7298C16.2789 32.4703 12.9353 30.9893 12.1247 26.479C11.7532 24.4257 11.7532 22.3052 12.3949 20.252C13.4081 16.9197 16.6504 15.1694 19.9939 16.1455C20.872 16.3812 21.2773 16.6841 22.3918 17.7948C22.3918 17.7948 22.4256 17.8622 22.4932 17.9295L22.5269 17.9631C22.5706 17.9849 22.6001 18.0207 22.6337 18.0614ZM19.5887 28.1283C20.9734 28.1956 22.1217 27.3205 22.2906 25.9068C22.4257 24.6277 22.4257 23.2813 22.2568 21.935C22.1217 20.5549 21.0747 19.7471 19.7238 19.7135C18.3729 19.6798 17.4272 20.3193 17.0557 21.5984C17.054 21.6088 17.0512 21.6246 17.0475 21.6455C16.979 22.0312 16.602 24.1541 16.9544 25.9741C17.2584 27.3205 18.1702 28.061 19.5887 28.1283Z" fill="#0B0B0B"></path>
<path d="M41.2709 30.5517C41.0683 29.7776 40.8319 29.0034 40.5955 28.2629L40.3591 27.4551C40.3591 27.4551 34.6176 30.2151 33.7395 24.9979C33.6719 24.1228 33.6719 23.2476 33.807 22.4062C34.0434 20.7905 35.0229 19.949 36.5764 19.7807C37.1168 19.7471 37.6572 19.7471 38.1638 19.848C38.873 19.9827 39.5823 20.1846 40.3591 20.3866C40.6292 19.5451 40.8994 18.7373 41.1696 17.9295C41.2034 17.7948 41.2372 17.6938 41.2709 17.5929L41.406 17.088C41.3723 17.0207 41.3047 16.9533 41.2034 16.886C41.0683 16.785 40.8319 16.6841 40.4942 16.5494C40.3591 16.4821 40.224 16.4484 40.0889 16.4148C39.9538 16.3811 39.8862 16.3475 39.8862 16.3475C38.3664 15.9099 36.8466 15.8762 35.2593 16.0445C31.9495 16.3811 29.6867 18.3334 29.0788 21.5647C28.741 23.2476 28.7748 24.9643 29.1463 26.6809C29.7205 29.239 31.2403 30.8547 33.7733 31.5952C35.4282 32.0664 37.083 32.1 38.7717 31.8308C39.481 31.7298 40.4942 31.3595 41.2034 31.0903L41.4736 30.9893L41.2709 30.5517Z" fill="#0B0B0B"></path>
<path fill-rule="evenodd" clip-rule="evenodd" d="M56.3507 23.6874C56.3549 23.9556 56.3591 24.2244 56.3675 24.4931L56.4013 25.4356V25.6039H55.7934H55.5907H47.5527H46.7759C46.7083 27.3542 47.7553 28.061 49.14 28.2966C49.9844 28.3976 50.8287 28.364 51.6392 28.2966C52.6187 28.162 53.5643 27.9264 54.206 27.7581L54.3073 27.7244C54.3487 27.7107 54.3887 27.6969 54.4278 27.6835C54.5803 27.631 54.7202 27.5829 54.8815 27.5561C55.0166 27.5225 55.1179 27.4888 55.1179 27.4888L55.1517 27.5561C55.3881 28.3976 55.6245 29.2391 55.8271 30.0806L55.996 30.7201C51.673 32.8743 46.8097 31.5953 45.7965 31.2923H45.7627C43.5674 30.5182 42.284 28.8688 41.9463 26.2771C41.7099 24.5604 41.7774 22.7428 42.0476 21.0262C42.4867 18.1988 44.7833 16.3476 47.8229 16.0446C48.9374 15.9436 50.0857 15.9436 51.1664 16.1119C54.0034 16.5832 55.7934 18.4008 56.1986 21.2955C56.3254 22.0786 56.338 22.8806 56.3507 23.6874ZM46.6408 22.3726H51.9432C51.977 21.2618 51.9094 20.252 50.8287 19.6462C49.8155 19.1076 48.7009 19.1076 47.7215 19.7471C46.8096 20.353 46.6745 21.3291 46.6408 22.3726Z" fill="#0B0B0B"></path>
<path d="M123.273 16.3475H118.072L113.546 23.3823V8.70685V8.60587V8L108.649 8.60587V31.6625H113.546V24.5941L118.072 31.6625H123.273L118.376 23.9882L123.273 16.3475Z" fill="#0B0B0B"></path>
<path fill-rule="evenodd" clip-rule="evenodd" d="M96.7608 16.2466C98.4832 15.809 100.206 15.7753 101.894 16.2466C104.596 16.9534 106.217 18.7037 106.893 21.3964C107.298 23.1467 107.298 24.8634 106.893 26.58C106.15 29.7103 103.684 31.7635 100.442 31.9318H100.341C99.6991 31.9991 98.8885 31.9655 98.2806 31.8982C98.1843 31.8822 98.0957 31.8738 98.011 31.8658C97.9175 31.8569 97.8289 31.8485 97.7402 31.8308H97.6051C97.5376 31.814 97.4785 31.8056 97.4194 31.7972C97.3603 31.7888 97.3012 31.7804 97.2336 31.7635H97.1999L97.0648 31.7299C93.8901 30.9894 91.8637 28.6669 91.6948 25.4019C91.5935 23.9546 91.661 22.4735 91.965 21.0935C92.5054 18.5354 94.2278 16.9197 96.7608 16.2466ZM102.029 26.0078C102.063 25.9068 102.097 25.8058 102.097 25.7049C102.131 25.4019 102.367 23.1131 102.029 21.8004C101.692 20.5213 100.746 19.7808 99.3952 19.7472C97.7403 19.7135 96.6595 20.6896 96.5244 22.4062C96.4569 23.4833 96.4569 24.5941 96.5582 25.7049C96.7271 27.2195 97.7403 28.0947 99.2601 28.162C100.645 28.2293 101.692 27.4551 102.029 26.0078Z" fill="#0B0B0B"></path>
</svg>
