<svg width="39" height="40" viewBox="0 0 39 40" fill="none" xmlns="http://www.w3.org/2000/svg">
<path d="M20.1687 39.749C11.3708 39.7252 3.70497 34.1677 1.2043 25.8784C-0.884222 18.9325 0.469812 12.5837 5.16732 7.03547C8.05505 3.62595 11.779 1.53611 16.1568 0.641788C18.6057 0.142341 21.1281 0.121706 23.5848 0.581022C23.8596 0.63122 23.8623 0.705197 23.7553 0.927126C22.547 3.44233 21.3444 5.96105 20.1476 8.4833C20.1179 8.56217 20.0629 8.62897 19.9912 8.6732C19.9194 8.71743 19.8351 8.73659 19.7513 8.72769C17.2341 8.79205 14.8107 9.6964 12.8667 11.2969C10.9227 12.8973 9.56988 15.102 9.02335 17.56C7.81727 22.9325 10.7235 28.49 15.8517 30.4596C19.9217 32.0224 23.709 31.4002 27.1542 28.7291C27.3299 28.597 27.4026 28.5706 27.5281 28.7885C28.8491 31.1003 30.1815 33.4077 31.5254 35.7106C31.643 35.9127 31.6007 36.0039 31.4264 36.1254C28.8314 37.9614 25.8295 39.14 22.6786 39.5601C21.8459 39.6674 21.0081 39.7305 20.1687 39.749Z" fill="#0B0B0B"></path>
<path d="M33.8357 34.0289C33.7274 33.9707 33.697 33.8518 33.6415 33.7554C32.1391 31.1574 30.642 28.5568 29.1501 25.9535C29.0994 25.8469 29.0166 25.7587 28.9133 25.7014C28.8101 25.6441 28.6915 25.6205 28.5741 25.6338C25.5913 25.6431 22.6098 25.6338 19.6269 25.6338H19.2557C19.2531 25.5193 19.2947 25.4081 19.372 25.3234C20.8867 22.6919 22.4024 20.0605 23.9189 17.429C23.9592 17.342 24.0256 17.2697 24.109 17.2224C24.1924 17.175 24.2885 17.1549 24.3839 17.1648C27.4372 17.1728 30.4896 17.1728 33.5411 17.1648C33.636 17.1549 33.7315 17.1751 33.8143 17.2225C33.897 17.27 33.9628 17.3422 34.0022 17.429C35.5249 20.0825 37.0546 22.7325 38.5914 25.3789C38.6427 25.4467 38.6716 25.5289 38.6739 25.6139C38.6763 25.6989 38.652 25.7826 38.6046 25.8531C37.0607 28.5189 35.5226 31.1821 33.9903 33.8426C33.9493 33.91 33.9308 34.0024 33.8357 34.0289Z" fill="#0B0B0B"></path>
<path d="M27.4051 6.0842C26.8582 5.5373 26.3483 5.01418 25.8199 4.49899C25.6561 4.34047 25.771 4.2229 25.841 4.10268C26.4457 3.04981 27.4302 2.26809 28.5927 1.91773C29.2971 1.68526 30.0425 1.60277 30.7807 1.67557C31.519 1.74837 32.2339 1.97485 32.8794 2.34046C35.2572 3.6258 35.0445 6.60732 33.672 7.95475C33.1516 8.45582 32.5622 8.87976 31.9216 9.21367C31.2611 9.56506 30.6006 9.89663 29.9533 10.2705C29.4157 10.5783 28.9969 11.0036 28.8027 11.6192C28.7235 11.8676 28.771 11.9323 29.0365 11.9297C30.7829 11.9191 32.5306 11.9297 34.2783 11.9191C34.5425 11.9191 34.6416 11.9693 34.631 12.2573C34.6072 12.8742 34.6165 13.4924 34.631 14.1067C34.631 14.3022 34.5769 14.3709 34.3761 14.3709C31.5676 14.3656 28.76 14.3656 25.9533 14.3709C25.8212 14.3709 25.6983 14.3709 25.697 14.1793C25.697 12.2348 26.0563 10.4237 27.5781 9.03666C28.303 8.39472 29.1168 7.86081 29.9943 7.45144C30.4751 7.2163 30.9612 6.99173 31.3813 6.65091C31.7486 6.35236 32.0022 5.99041 32.0286 5.50163C32.0683 4.73677 31.4632 4.16873 30.5491 4.10929C29.2347 4.0155 28.2862 4.60731 27.6231 5.70639C27.557 5.81471 27.4962 5.92568 27.4051 6.0842Z" fill="#0B0B0B"></path>
<path d="M34.1027 36.7978V36.1624H33.8755V36.0303H34.4845V36.1624H34.2546V36.7978H34.1027ZM34.5822 36.7978V36.0329H34.8134L34.9455 36.5547L35.0776 36.0329H35.3101V36.7978H35.1793V36.1954L35.0274 36.7978H34.8781L34.7275 36.1954V36.7978H34.5822Z" fill="#0B0B0B"></path>
</svg>
