<svg width="64" height="64" viewBox="0 0 64 64" fill="none" xmlns="http://www.w3.org/2000/svg">
<path d="M7 12L7 55C7 56.1046 7.89543 57 9 57H44.1899C45.2945 57 46.1899 56.1046 46.1899 55V12C46.1899 10.8954 45.2945 10 44.1899 10H9C7.89543 10 7 10.8954 7 12Z" fill="#BDEA09"/>
<path d="M17.3301 7H35.8701C36.3289 7 36.7689 7.1824 37.0934 7.50684C37.4178 7.83127 37.6001 8.27116 37.6001 8.72998V13H15.6001V8.72998C15.6001 8.27116 15.7824 7.83127 16.1068 7.50684C16.4312 7.1824 16.8713 7 17.3301 7Z" fill="#6491FC"/>
<path d="M17.8101 27.5908C20.4224 27.5908 22.5401 25.4731 22.5401 22.8608C22.5401 20.2485 20.4224 18.1309 17.8101 18.1309C15.1978 18.1309 13.0801 20.2485 13.0801 22.8608C13.0801 25.4731 15.1978 27.5908 17.8101 27.5908Z" fill="white"/>
<path d="M15.5303 22.5396L17.2603 24.2798L20.1003 21.4395" stroke="#0B0B0B" stroke-miterlimit="10" stroke-linecap="round"/>
<path d="M17.8101 39.3506C20.4224 39.3506 22.5401 37.2329 22.5401 34.6206C22.5401 32.0083 20.4224 29.8906 17.8101 29.8906C15.1978 29.8906 13.0801 32.0083 13.0801 34.6206C13.0801 37.2329 15.1978 39.3506 17.8101 39.3506Z" fill="white"/>
<path d="M15.5303 34.2993L17.2603 36.0391L20.1003 33.1992" stroke="#0B0B0B" stroke-miterlimit="10" stroke-linecap="round"/>
<path d="M17.8101 51.1006C20.4224 51.1006 22.5401 48.9829 22.5401 46.3706C22.5401 43.7583 20.4224 41.6406 17.8101 41.6406C15.1978 41.6406 13.0801 43.7583 13.0801 46.3706C13.0801 48.9829 15.1978 51.1006 17.8101 51.1006Z" fill="white"/>
<path d="M15.3901 46.0693L17.0201 47.709L19.7001 45.0391" stroke="#0B0B0B" stroke-miterlimit="10" stroke-linecap="round"/>
<path d="M26.6001 22.8594H40.1101" stroke="#0B0B0B" stroke-miterlimit="10" stroke-linecap="round"/>
<path d="M26.6001 34.6211H40.1101" stroke="#0B0B0B" stroke-miterlimit="10" stroke-linecap="round"/>
<path d="M26.6001 46.3711H40.1101" stroke="#0B0B0B" stroke-miterlimit="10" stroke-linecap="round"/>
<path d="M46.1899 45.4307C52.1601 45.4307 56.9999 40.5908 56.9999 34.6206C56.9999 28.6504 52.1601 23.8105 46.1899 23.8105C40.2197 23.8105 35.3799 28.6504 35.3799 34.6206C35.3799 40.5908 40.2197 45.4307 46.1899 45.4307Z" fill="#B17CEF"/>
<path d="M46.1899 28.1211V34.6211H41.1699" stroke="#0B0B0B" stroke-miterlimit="10" stroke-linecap="round"/>
</svg>
