<svg xmlns="http://www.w3.org/2000/svg" fill="none" viewBox="0 0 140 40" height="40" width="140">
<path fill="#0B0B0B" d="M37.2962 15.8948H51.391V18.5214H45.8413V33.3279H42.7994V18.5214H37.2729L37.2962 15.8948ZM50.7873 20.7063H53.3879V23.147H53.4344C53.5273 22.7983 53.6898 22.4729 53.922 22.1475C54.1542 21.8221 54.4329 21.5199 54.7812 21.2642C55.1063 20.9853 55.4778 20.7761 55.8958 20.6134C56.2905 20.4506 56.7085 20.3577 57.1264 20.3577C57.3299 20.3577 57.497 20.3668 57.622 20.3736C57.6967 20.3777 57.7564 20.3809 57.7998 20.3809C57.9159 20.4042 58.0553 20.4274 58.1714 20.4274V23.1005C57.9856 23.054 57.7766 23.0308 57.5676 23.0075L57.5107 23.0011C57.3244 22.9802 57.1537 22.961 56.9639 22.961C56.4995 22.961 56.0583 23.054 55.6403 23.24C55.2224 23.4259 54.8741 23.7048 54.549 24.0535C54.2471 24.4254 53.9917 24.867 53.8059 25.4017C53.6201 25.9363 53.5273 26.5639 53.5273 27.2612V33.2582H50.7408L50.7873 20.7063ZM68.2026 33.3279H70.9426H70.9658V20.7063H68.1794V28.0283C68.1794 28.5164 68.1329 28.9813 68.0168 29.3997C67.9007 29.8181 67.7382 30.19 67.4828 30.4922C67.2506 30.7943 66.9255 31.0268 66.5307 31.2127C66.136 31.3987 65.6483 31.4917 65.0678 31.4917C64.3016 31.4917 63.6978 31.2592 63.2799 30.7943C62.8387 30.3527 62.6297 29.5624 62.6297 28.4467V20.7063H59.8432V28.7256C59.8432 30.3759 60.2148 31.6311 60.9578 32.4447C61.7009 33.2815 62.9083 33.6766 64.557 33.6766C65.2536 33.6766 65.9502 33.4907 66.6236 33.0955C67.297 32.7004 67.8078 32.2122 68.1561 31.5614H68.2026V33.3279ZM75.6796 29.2834C75.7725 30.097 76.0743 30.6549 76.6084 31.0035C77.1425 31.3289 77.7926 31.4916 78.5357 31.4916C78.7911 31.4916 79.093 31.4684 79.4181 31.4219C79.7432 31.3754 80.0682 31.3057 80.3469 31.1895C80.6488 31.0732 80.881 30.9105 81.0667 30.6781C81.2525 30.4457 81.3454 30.1667 81.3221 29.8181C81.2989 29.4694 81.1828 29.1672 80.9274 28.9348C80.672 28.7023 80.3701 28.5396 79.9986 28.3769C79.6271 28.2374 79.1859 28.1212 78.6982 28.0283C78.3016 27.9526 77.9049 27.8616 77.4957 27.7677L77.4957 27.7677C77.4019 27.7462 77.3074 27.7245 77.2121 27.7028C76.7013 27.5866 76.1904 27.4471 75.7028 27.2844C75.2152 27.1217 74.7972 26.9125 74.4025 26.6104C74.0309 26.3314 73.7058 25.9828 73.4969 25.5411C73.2646 25.0995 73.1485 24.5881 73.1485 23.9373C73.1485 23.2399 73.3111 22.6821 73.6594 22.2172C73.9845 21.7523 74.4257 21.3804 74.9365 21.1015C75.4474 20.8225 76.0279 20.6133 76.6548 20.4971C77.2818 20.3809 77.8855 20.3344 78.4428 20.3344C79.093 20.3344 79.7199 20.4041 80.3004 20.5436C80.881 20.6831 81.4382 20.8923 81.9027 21.2177C82.3903 21.5199 82.785 21.9383 83.0869 22.4264C83.412 22.9145 83.5977 23.5189 83.6906 24.2162H80.7881C80.6488 23.5421 80.3469 23.1005 79.8825 22.868C79.3948 22.6356 78.8608 22.5194 78.2338 22.5194C78.0481 22.5194 77.7926 22.5426 77.5372 22.5659C77.2586 22.6123 77.0264 22.6588 76.7709 22.7518C76.5387 22.8448 76.3297 22.9843 76.1672 23.147C76.0047 23.3097 75.9118 23.5421 75.9118 23.821C75.9118 24.1697 76.0279 24.4254 76.2601 24.6346C76.4923 24.8438 76.7942 25.0065 77.1889 25.1692C77.5604 25.3087 78.0016 25.4249 78.4893 25.5179C78.9769 25.6109 79.4877 25.7271 79.9986 25.8433C80.5094 25.9595 80.9971 26.099 81.4847 26.2617C81.9723 26.4244 82.4135 26.6336 82.785 26.9358C83.1566 27.2147 83.4816 27.5634 83.7139 27.9818C83.9461 28.4002 84.0622 28.9348 84.0622 29.5391C84.0622 30.2829 83.8996 30.9105 83.5513 31.4452C83.203 31.9565 82.7618 32.3982 82.2277 32.7236C81.6937 33.049 81.0667 33.2814 80.4165 33.4442C79.7432 33.5836 79.093 33.6766 78.4428 33.6766C77.6533 33.6766 76.9103 33.5836 76.2369 33.3977C75.5635 33.2117 74.9597 32.9328 74.4721 32.5841C73.9845 32.2122 73.5897 31.7706 73.3111 31.2127C73.0324 30.6781 72.8699 30.0273 72.8467 29.2602H75.6564V29.2834H75.6796ZM86.9647 20.7063H84.8517V22.7751H86.9647V30.2132C86.9879 30.7246 87.0344 31.2127 87.1273 31.6079C87.2201 32.003 87.3827 32.3285 87.6381 32.6074C87.8935 32.8631 88.2418 33.0723 88.683 33.2117C89.1242 33.3512 89.7047 33.4209 90.4478 33.4209C90.7729 33.4209 91.0515 33.4209 91.3534 33.3744C91.6552 33.3512 91.9571 33.328 92.259 33.2815V31.1198C92.0916 31.1616 91.9054 31.1847 91.7343 31.2058L91.7343 31.2058L91.6785 31.2127C91.4927 31.236 91.2837 31.236 91.098 31.236C90.7729 31.236 90.5407 31.1895 90.3549 31.1198C90.1924 31.05 90.053 30.9338 89.9602 30.7943C89.8905 30.6549 89.8208 30.4689 89.7976 30.2597L89.7976 30.2596C89.7744 30.0272 89.7512 29.7948 89.7512 29.4927V22.7518H92.259V20.6831H89.7512V16.8943H86.9647V20.7063ZM94.2327 20.7063H96.8334V22.4264H96.8798C97.2746 21.6826 97.8087 21.1712 98.5053 20.8458C99.2019 20.5204 99.9449 20.3577 100.781 20.3577C101.779 20.3577 102.639 20.5204 103.382 20.8923C104.125 21.2409 104.728 21.7058 105.216 22.3334C105.704 22.9378 106.075 23.6583 106.307 24.4719C106.54 25.2854 106.679 26.1687 106.679 27.0752C106.679 27.9353 106.563 28.7488 106.354 29.5391C106.122 30.3294 105.797 31.05 105.355 31.6544C104.914 32.2587 104.357 32.7468 103.66 33.1187C102.964 33.4907 102.174 33.6766 101.245 33.6766C100.851 33.6766 100.433 33.6301 100.038 33.5604C99.6431 33.4907 99.2483 33.3744 98.8768 33.2117C98.5053 33.049 98.157 32.8398 97.8551 32.5841C97.53 32.3284 97.2746 32.0263 97.0656 31.7009H97.0192V38H94.2327V20.7063ZM103.707 25.3784C103.869 25.913 103.939 26.4709 103.939 27.0288C103.939 27.5866 103.869 28.1212 103.753 28.6791C103.637 29.2137 103.428 29.6786 103.149 30.097C102.848 30.4921 102.499 30.8408 102.058 31.0965C101.617 31.3522 101.106 31.4917 100.456 31.4917C99.8753 31.4917 99.3877 31.3754 98.9465 31.143C98.5053 30.9105 98.1337 30.6084 97.8319 30.2132C97.5068 29.8181 97.2978 29.3532 97.1353 28.8186C96.9727 28.2839 96.9031 27.7028 96.9031 27.052C96.9031 25.7038 97.2049 24.6114 97.7854 23.7978C98.3892 22.9843 99.2715 22.5891 100.433 22.5891C100.99 22.5891 101.501 22.7053 101.942 22.961C102.36 23.2167 102.731 23.5421 103.033 23.9605C103.335 24.3789 103.567 24.8438 103.707 25.3784ZM108.838 15.8948H111.625V18.5214H108.838V15.8948ZM111.625 20.7063H108.838V33.3279H111.625V20.7063ZM114.109 15.8948H116.896V33.3279H114.109V15.8948ZM122.701 33.1652C123.49 33.5139 124.396 33.6766 125.395 33.6766C126.416 33.6766 127.299 33.4907 128.088 33.1652C128.878 32.8398 129.551 32.3749 130.085 31.7938C130.619 31.1895 131.014 30.4922 131.316 29.6786C131.618 28.8651 131.757 27.9818 131.757 27.0055C131.757 26.0525 131.594 25.1692 131.316 24.3557C131.037 23.5421 130.619 22.8216 130.085 22.2404C129.528 21.6593 128.878 21.1945 128.088 20.869C127.299 20.5204 126.393 20.3577 125.395 20.3577C124.396 20.3577 123.49 20.5436 122.701 20.869C121.911 21.1945 121.238 21.6593 120.704 22.2404C120.17 22.8448 119.752 23.5421 119.473 24.3557C119.171 25.1692 119.032 26.0525 119.032 27.0055C119.032 27.9585 119.195 28.8651 119.473 29.6786C119.752 30.4922 120.17 31.2127 120.704 31.7938C121.261 32.3749 121.911 32.8166 122.701 33.1652ZM125.395 31.4684C125.998 31.4684 126.556 31.3289 126.997 31.0733C127.461 30.8176 127.809 30.4689 128.111 30.0505C128.413 29.6321 128.622 29.144 128.762 28.6326C128.901 28.098 128.971 27.5634 128.971 27.0055C128.971 26.4709 128.901 25.9363 128.762 25.4017C128.622 24.867 128.413 24.4022 128.111 23.9838C127.809 23.5654 127.438 23.2399 126.997 22.9843C126.532 22.7286 125.998 22.5891 125.395 22.5891C124.791 22.5891 124.234 22.7286 123.792 22.9843C123.328 23.2399 122.98 23.5886 122.678 23.9838C122.376 24.4022 122.167 24.867 122.028 25.4017C121.888 25.9363 121.819 26.4709 121.819 27.0055C121.819 27.5634 121.888 28.098 122.028 28.6326C122.167 29.1672 122.376 29.6321 122.678 30.0505C122.98 30.4689 123.351 30.8176 123.792 31.0733C124.257 31.3522 124.791 31.4684 125.395 31.4684ZM134.706 20.7063H132.593V22.7751H134.706V30.2132C134.729 30.7246 134.776 31.2127 134.868 31.6079C134.961 32.003 135.124 32.3285 135.379 32.6074C135.635 32.8631 135.983 33.0723 136.424 33.2117C136.865 33.3512 137.446 33.4209 138.189 33.4209C138.514 33.4209 138.793 33.4209 139.095 33.3744C139.396 33.3512 139.698 33.328 140 33.2815V31.1198C139.833 31.1616 139.647 31.1847 139.476 31.2058C139.457 31.2081 139.438 31.2104 139.42 31.2127C139.234 31.236 139.025 31.236 138.839 31.236C138.514 31.236 138.282 31.1895 138.096 31.1198C137.934 31.05 137.794 30.9338 137.701 30.7943C137.632 30.6549 137.562 30.4689 137.539 30.2597L137.539 30.2595C137.516 30.0272 137.492 29.7948 137.492 29.4927V22.7518H140V20.6831H137.492V16.8943H134.706V20.7063Z" clip-rule="evenodd" fill-rule="evenodd"></path>
<path fill="#0B0B0B" d="M33.6364 15.3189H20.7857L16.8299 3L12.8506 15.3189L0 15.2953L10.3929 22.9179L6.41361 35.2368L16.8065 27.6142L27.1993 35.2368L23.2435 22.9179L33.6364 15.3189Z"></path>
<path fill="#0B0B0B" d="M24.5457 25.9939L23.6599 23.2632L17.2729 27.8684L24.5457 25.9939Z"></path>
</svg>
